# xmcd
#
# Track frame offsets: 
#        150
#        8167
#        11380
#        18850
#        24240
#        29855
#        38050
#        47507
#        57247
#        64997
#        76490
#        92512
#        100590
#        108952
#
# Disc length: 1586 seconds
#
# Revision: 0
# Processed by: cddbd v1.4PL0 Copyright (c) Steve Scherf et al.
# Submitted via: ExactAudioCopy v0.90b3
#
DISCID=9b06300e
DTITLE=Loren Mazzacane Connors and Suzanne Langille - crucible
DYEAR=1996
DGENRE=Blues
TTITLE0=First Light
TTITLE1=Dimstar
TTITLE2=In The Morning, Duffy Square
TTITLE3=Single Heart
TTITLE4=Morning Doubt
TTITLE5=43rd and 8th
TTITLE6=Pipe Dream
TTITLE7=Evangelist
TTITLE8=Open Doors
TTITLE9=Crucible
TTITLE10=O'Donnell's Camp
TTITLE11=Crying Low
TTITLE12=Don't Give Up Hope In Me
TTITLE13=Here In The Night
EXTD=
EXTT0=
EXTT1=
EXTT2=
EXTT3=
EXTT4=
EXTT5=
EXTT6=
EXTT7=
EXTT8=
EXTT9=
EXTT10=
EXTT11=
EXTT12=
EXTT13=
PLAYORDER=
